<svg width="64" height="69" viewBox="0 0 64 69" fill="none" xmlns="http://www.w3.org/2000/svg">
<path d="M37.7128 3.60769C34 1.4641 29.4256 1.4641 25.7128 3.60769L8 13.8342C4.28718 15.9778 2 19.9393 2 24.2265V44.6795C2 48.9667 4.28718 52.9282 8 55.0718L25.7128 65.2983C29.4256 67.4419 34 67.4419 37.7128 65.2983L55.4256 55.0718C59.1384 52.9282 61.4256 48.9667 61.4256 44.6795V24.2265C61.4256 19.9393 59.1384 15.9778 55.4256 13.8342L37.7128 3.60769Z" fill="#EF9699" stroke="#FFE1E2" stroke-width="4"/>
<path fill-rule="evenodd" clip-rule="evenodd" d="M16.7128 29.8875V43.453H46.7128V29.8875L32.3703 39.2818L31.7128 39.7125L31.0553 39.2818L16.7128 29.8875ZM45.5128 25.453H31.7128H17.9128V27.8045L31.7128 36.8435L45.5128 27.8045V25.453Z" fill="#DF2D33"/>
</svg>
